<?xml version="1.0" encoding="utf-8"?>
<!-- Generator: Adobe Illustrator 26.3.1, SVG Export Plug-In . SVG Version: 6.00 Build 0)  -->
<svg version="1.1" id="Layer_1" xmlns="http://www.w3.org/2000/svg" xmlns:xlink="http://www.w3.org/1999/xlink" x="0px" y="0px"
	 viewBox="0 0 100 100" style="enable-background:new 0 0 100 100;" xml:space="preserve">
<style type="text/css">
	.st0{fill:#FF7618;}
	.st1{fill:#FFE0CB;}
</style>
<path class="st0" d="M0,50c0,27.6,22.4,50,50,50s50-22.4,50-50S77.6,0,50,0S0,22.4,0,50z M5.1,49.9c0-24.8,20.2-44.9,45-44.8
	s44.9,20.2,44.8,45S74.8,94.9,50,94.9S5.1,74.8,5.1,49.9L5.1,49.9z"/>
<path class="st1" d="M81.2,50c0-4.2-2.4-8-6.2-9.8c2.5-5.9-0.3-12.7-6.2-15.2c-2.9-1.2-6.1-1.2-9,0c-2.6-5.4-9.2-7.7-14.6-5.1
	c-2.2,1.1-4,2.8-5.1,5.1c-5.9-2.5-12.7,0.3-15.2,6.2c-1.2,2.9-1.2,6.1,0,9c-5.4,2.6-7.7,9.2-5.1,14.6c1.1,2.2,2.8,4,5.1,5.1
	c-2.5,5.9,0.3,12.7,6.2,15.2c2.9,1.2,6.1,1.2,9,0c2.6,5.4,9.2,7.7,14.6,5.1c2.2-1.1,4-2.8,5.1-5.1c5.9,2.5,12.7-0.3,15.2-6.2
	c1.2-2.9,1.2-6.1,0-9C78.8,58,81.2,54.2,81.2,50z M70.4,29.6c2.5,2.6,3.2,6.4,1.8,9.7c-0.6-0.1-1.3-0.2-2-0.2
	c-5.1,0-9.3-4.2-9.3-9.3c0-0.7-0.1-1.3-0.2-2C64,26.3,67.9,27,70.4,29.6z M59.3,71.3c-0.4-0.3-0.7-0.6-1.1-0.9
	c-4.5-4.5-11.9-4.5-16.4,0c-0.3,0.3-0.7,0.6-1.1,0.9c0-0.4-0.1-0.7-0.1-1.1c0-6-4.9-10.9-10.9-10.9c-0.4,0-0.7,0-1.1-0.1
	c0.3-0.4,0.6-0.7,0.9-1.1c4.5-4.5,4.5-11.9,0-16.4c-0.3-0.3-0.6-0.7-0.9-1.1c0.4,0,0.7-0.1,1.1-0.1c6,0,10.9-4.9,10.9-10.9
	c0-0.4,0-0.7,0.1-1.1c0.4,0.3,0.7,0.6,1.1,0.9c4.5,4.5,11.9,4.5,16.4,0c0.3-0.3,0.7-0.6,1.1-0.9c0,0.4,0.1,0.7,0.1,1.1
	c0,6,4.9,10.9,10.9,10.9c0.4,0,0.7,0,1.1,0.1c-0.3,0.4-0.6,0.7-0.9,1.1c-4.5,4.5-4.5,11.9,0,16.4c0.3,0.3,0.6,0.7,0.9,1.1
	c-0.4,0-0.7,0.1-1.1,0.1c-6,0-10.9,4.9-10.9,10.9C59.3,70.6,59.3,71,59.3,71.3z M50,20.4c3.6,0,6.8,2,8.4,5.3
	c-0.8,0.5-1.6,1.1-2.3,1.8c-3.4,3.4-8.8,3.4-12.2,0c-0.7-0.7-1.5-1.3-2.3-1.8C43.2,22.5,46.4,20.4,50,20.4L50,20.4z M29.6,29.6
	c2.6-2.5,6.4-3.2,9.7-1.8c-0.1,0.6-0.2,1.3-0.2,2c0,5.1-4.2,9.3-9.3,9.3c-0.7,0-1.3,0.1-2,0.2C26.3,36,27,32.1,29.6,29.6L29.6,29.6z
	 M20.4,50c0-3.6,2-6.8,5.3-8.4c0.5,0.8,1.1,1.6,1.8,2.3c3.4,3.4,3.4,8.8,0,12.2c-0.7,0.7-1.3,1.5-1.8,2.3
	C22.5,56.8,20.4,53.6,20.4,50L20.4,50z M29.6,70.4c-2.5-2.6-3.2-6.4-1.8-9.7c0.6,0.1,1.3,0.2,2,0.2c5.1,0,9.3,4.2,9.3,9.3
	c0,0.7,0.1,1.3,0.2,2C36,73.7,32.1,73,29.6,70.4L29.6,70.4z M50,79.6c-3.6,0-6.8-2-8.4-5.3c0.8-0.5,1.6-1.1,2.3-1.8
	c3.4-3.4,8.8-3.4,12.2,0c0.7,0.7,1.5,1.3,2.3,1.8C56.8,77.5,53.6,79.6,50,79.6L50,79.6z M70.4,70.4c-2.6,2.5-6.4,3.2-9.7,1.8
	c0.1-0.6,0.2-1.3,0.2-2c0-5.1,4.2-9.3,9.3-9.3c0.7,0,1.3-0.1,2-0.2C73.7,64,73,67.9,70.4,70.4z M74.3,58.4c-0.5-0.8-1.1-1.6-1.8-2.3
	c-3.4-3.4-3.4-8.8,0-12.2c0.7-0.7,1.3-1.5,1.8-2.3c4.6,2.2,6.6,7.8,4.3,12.5C77.7,56,76.2,57.5,74.3,58.4z"/>
</svg>
