<?xml version="1.0" encoding="utf-8"?>
<!-- Generator: Adobe Illustrator 26.3.1, SVG Export Plug-In . SVG Version: 6.00 Build 0)  -->
<svg version="1.1" id="Layer_1" xmlns="http://www.w3.org/2000/svg" xmlns:xlink="http://www.w3.org/1999/xlink" x="0px" y="0px"
	 viewBox="0 0 100 113.4" style="enable-background:new 0 0 100 113.4;" xml:space="preserve">
<style type="text/css">
	.st0{fill:#264DE4;}
	.st1{fill:#2965F1;}
	.st2{fill:#EBEBEB;}
	.st3{fill:#FFFFFF;}
</style>
<path class="st0" d="M9.1,102.1L0,0h100l-9.1,102.1l-41,11.4L9.1,102.1z"/>
<path class="st1" d="M83.1,95.6l7.8-87.2H50v96.4L83.1,95.6z"/>
<path class="st2" d="M20.9,46.2L22,58.7h28V46.2H20.9z M19.7,33.4H50V20.9H18.6L19.7,33.4z M50,78.7L50,78.7L36,75l-0.9-10H22.5
	l1.8,19.7l25.6,7.1l0.1,0L50,78.7z"/>
<path class="st3" d="M50,46.2v12.5h15.4L63.9,75l-14,3.8v13l25.7-7.1l0.2-2.1l2.9-33l0.3-3.4l2.3-25.3H50v12.5h17.6l-1.1,12.8H50z"
	/>
</svg>
